<svg xmlns="http://www.w3.org/2000/svg" xmlns:xlink="http://www.w3.org/1999/xlink" width="100" height="100" viewBox="0 0 100 100"><g><g transform="translate(50 50) scale(-0.69 0.69) rotate(0) translate(-50 -50)" style="fill:#000000;"><svg fill="#000000" xmlns="http://www.w3.org/2000/svg" xmlns:xlink="http://www.w3.org/1999/xlink" version="1.1" x="0px" y="0px" viewBox="0 0 50 50" enable-background="new 0 0 50 50" xml:space="preserve"><path d="M43.796,38.404c-0.173,0-0.346-0.045-0.5-0.134l-14.089-8.135c-0.31-0.179-0.5-0.508-0.5-0.865s0.19-0.688,0.5-0.866  l14.089-8.134c0.309-0.179,0.691-0.179,1,0c0.31,0.179,0.5,0.509,0.5,0.866v16.268c0,0.357-0.19,0.688-0.5,0.866  C44.142,38.359,43.969,38.404,43.796,38.404z M31.707,29.271l11.089,6.401V22.868L31.707,29.271z"></path><path d="M6.204,38.404c-0.173,0-0.345-0.045-0.5-0.134c-0.31-0.179-0.5-0.509-0.5-0.866V21.136c0-0.357,0.19-0.688,0.5-0.866  s0.69-0.179,1,0l14.089,8.135c0.31,0.179,0.5,0.509,0.5,0.866s-0.19,0.688-0.5,0.866L6.704,38.271  C6.549,38.359,6.377,38.404,6.204,38.404z M7.204,22.868v12.804l11.089-6.401L7.204,22.868z"></path><path d="M26,38.771c0,0.553-0.447,1-1,1l0,0c-0.552,0-1-0.447-1-1v-19c0-0.552,0.448-1,1-1l0,0c0.553,0,1,0.448,1,1V38.771z"></path><path d="M37.243,17.772c-0.396,0.386-1.081,0.327-1.558-0.085c-6.119-5.315-15.253-5.315-21.372,0  c-0.476,0.412-1.161,0.471-1.557,0.085l0,0c-0.396-0.385-0.299-1.124,0.247-1.597c6.869-5.966,17.124-5.966,23.993,0  C37.542,16.648,37.639,17.387,37.243,17.772L37.243,17.772z"></path><path d="M37.754,16.65c0.229,0.502,0.008,1.095-0.494,1.325l0,0c-0.503,0.229-1.096,0.008-1.325-0.494l-2.666-5.836  c-0.23-0.502-0.009-1.096,0.494-1.325l0,0c0.502-0.229,1.096-0.008,1.324,0.494L37.754,16.65z"></path><path d="M36.733,16.059c0.549-0.062,1.044,0.333,1.105,0.882l0,0c0.062,0.549-0.333,1.043-0.882,1.105l-6.376,0.718  c-0.549,0.062-1.044-0.333-1.106-0.881l0,0c-0.061-0.55,0.334-1.044,0.883-1.106L36.733,16.059z"></path></svg></g></g></svg>